# xmcd
#
# Track frame offsets: 
#        150
#        17070
#        29567
#        44122
#        58337
#        73657
#        91602
#        105410
#        121704
#
# Disc length: 1863 seconds
#
# Revision: 0
# Processed by: cddbd v1.5.2PL0 Copyright (c) Steve Scherf et al.
# Submitted via: ExactAudioCopyFreeDBPlugin 1.0
#
DISCID=75074509
DTITLE=T.K. Browning Band - Red-Neckin' Saturday Night
DYEAR=1986
DGENRE=Country
TTITLE0=Cold Busted
TTITLE1=red neck rebel
TTITLE2=Home again
TTITLE3=Parker's Mountain
TTITLE4=Alabama
TTITLE5=Country Rap
TTITLE6=One of the Men
TTITLE7=The Legacy
TTITLE8=Red-Neckin' Saturday Night
EXTD=
EXTT0=
EXTT1=
EXTT2=
EXTT3=
EXTT4=
EXTT5=
EXTT6=
EXTT7=
EXTT8=
PLAYORDER=
